<svg width="222" height="245" viewBox="0 0 222 245" fill="none" xmlns="http://www.w3.org/2000/svg">
<path d="M103.679 22.7775C100.72 19.1363 101.13 11.9368 101.451 7.22454C101.572 5.44604 106.01 2.34629 107.448 1.15629C110.924 -1.72121 114.087 1.39579 116.757 3.73754C120.702 7.00504 119.429 10.5143 119.694 15.0045C119.862 17.8803 119.402 20.3648 117.312 22.4943C117.407 26.1275 118.052 31.5898 118.444 35.3048L120.352 53.7558C120.889 59.0405 121.487 63.7273 121.154 69.0643C125.219 69.126 133.042 72.0128 136.722 73.9153C139.562 75.2548 141.097 76.2538 143.639 78.1135C147.844 80.8363 152.104 83.9988 155.044 88.145C164.992 82.1045 176.797 79.0153 187.107 73.6395C190.294 71.9773 193.724 70.7638 196.859 68.9313C199.177 63.5198 202.572 62.021 207.729 59.3835C209.357 58.5513 211.619 58.4215 213.277 59.303C214.597 60.0718 220.372 62.7125 220.852 63.8255C221.724 65.8563 220.434 71.8855 219.787 73.888C215.729 77.309 209.864 80.0148 204.407 79.5508L203.987 79.5145C192.277 87.3528 181.664 96.4713 169.882 104.185C168.387 105.164 166.899 106.654 165.327 107.478C168.122 116.135 168.627 124.126 166.889 133.052C166.462 135.257 166.009 137.811 165.104 139.845L164.929 140.247C164.894 140.327 164.857 140.406 164.819 140.486C168.322 141.945 171.054 144.187 174.169 146.321C180.182 150.442 185.862 155.029 191.832 159.203C195.699 161.905 199.897 163.897 203.887 166.481C209.387 165.369 213.299 168.888 218.069 171.207C220.807 172.539 222.014 180.79 220.827 182.71C219.712 184.51 212.887 186.925 210.559 187.797C207.547 186.375 202.869 184.425 200.307 182.457C197.559 180.347 198.409 178.532 194.397 176.85C186.099 173.367 177.872 169.583 169.694 165.823C165.387 163.841 158.579 161.658 154.902 158.863C147.834 167.153 132.042 176.592 121.072 177.532C121.407 181.687 120.479 189.567 120.012 194.06C119.104 202.81 118.527 212.51 117.414 221.205C121.277 226.892 119.482 230.292 119.597 237.127C117.977 239.992 113.487 243.217 110.398 244.25C105.636 242.135 100.905 238.985 101.279 233.115C101.593 228.192 100.091 225.855 103.714 221.722C103.352 217.185 103.08 212.642 102.709 208.11C101.878 197.967 100.413 187.865 100.012 177.69C97.39 177.505 94.781 176.587 92.2547 175.912C83.2867 173.517 75.8717 167.822 69.0982 161.703C68.7537 161.49 66.9145 159.518 66.5622 159.659C52.374 165.33 38.4727 171.776 24.5087 177.942C23.927 178.2 20.7775 184.147 17.4477 184.522C17.2642 184.542 11.5552 187.422 10.5127 187.84C8.66524 187.185 1.356 184.162 0.406998 182.697C-0.258752 181.67 0.483749 174.582 1.16475 173.37C2.52275 170.957 10.1467 167.547 12.9465 166.596C14.5742 166.043 15.8157 166.254 17.415 166.485C19.7422 165.382 22.0427 163.828 24.257 162.486C35.506 155.671 44.785 147.036 56.2795 140.401C56.3252 139.851 56.34 139.886 56.1527 139.37C54.4472 134.222 53.8332 129.661 53.687 124.287C52.9667 119.929 54.6592 111.79 55.8122 107.531C53.5695 106.098 51.5725 104.428 49.3935 102.949C46.2795 100.836 43.1805 99.0765 40.1982 96.7533C33.2502 91.34 24.4482 84.239 16.9882 79.6163L16.6617 79.662C11.1505 80.391 5.90224 77.5018 1.61874 74.2178C0.358494 70.8123 0.02275 67.2523 0 63.6433C3.23075 61.3518 6.81424 59.603 10.6085 58.4665L11.5265 58.8193C14.806 60.103 20.487 63.064 22.745 65.941C23.2897 66.6355 23.948 68.1338 24.329 68.9895C30.1635 71.2923 36.5802 74.9403 42.386 77.3748C48.4912 79.9348 54.6155 82.004 60.5277 85.1183C62.555 86.186 64.5955 86.981 66.408 88.4575C75.5917 77.8188 86.174 71.6558 99.9877 68.8095C99.9902 61.5803 100.833 55.3903 101.525 48.1878C102.388 39.7308 103.106 31.2593 103.679 22.7775ZM64.6172 133.025C66.5445 142.522 75.9077 156.211 84.4145 161.132C95.3245 167.443 110.179 170.529 122.444 166.906C126.984 165.352 133.562 163.468 137.489 160.727C155.974 147.832 163.559 125.217 153.404 104.467C150.097 97.706 143.112 90.3048 137.059 86.083C136.604 85.765 136.484 85.7823 136.012 85.3268C132.207 82.9578 129.539 81.7648 125.297 80.3468C118.374 77.8145 106.905 77.9953 99.2622 79.4163C82.274 82.5753 66.1995 100.204 64.137 117.333C63.8727 119.528 63.8382 122.304 63.7127 124.535C63.788 125.428 64.6137 133.044 64.6172 133.025Z" fill="#267CFD"/>
<path d="M91.4519 101.351C95.1121 102.642 101.476 108.846 104.998 111.361C107.537 113.176 117.209 119.404 118.081 121.683C118.099 121.649 94.6456 139.395 92.4521 141.586C90.9479 141.495 86.9486 137.681 85.7646 136.463C89.5911 133.792 93.3554 131.035 97.0549 128.191C100.326 125.653 102.533 123.706 106.105 121.443C104.877 120.371 102.482 118.764 101.036 117.668C96.4111 114.163 90.5101 109.375 85.4219 106.616C87.5096 105.068 89.2574 103.063 91.4519 101.351Z" fill="#FEFEFE"/>
<path d="M116.578 134.328C121.891 134.534 127.716 134.208 133.066 134.332C135.388 134.386 138.141 134.166 140.411 134.466C141.266 135.786 141.166 139.577 140.978 141.112C133.218 141.118 124.468 140.935 116.796 141.312C116.768 139.059 116.796 136.549 116.578 134.328Z" fill="#359AFE"/>
<path d="M103.679 22.7775C100.72 19.1363 101.13 11.9368 101.451 7.22454C101.572 5.44604 106.01 2.34629 107.448 1.15629C110.924 -1.72121 114.087 1.39579 116.757 3.73754C120.702 7.00504 119.429 10.5143 119.694 15.0045C119.862 17.8803 119.402 20.3648 117.312 22.4943C117.407 26.1275 118.052 31.5898 118.444 35.3048L120.352 53.7558C120.889 59.0405 121.487 63.7273 121.154 69.0643C125.219 69.126 133.042 72.0128 136.722 73.9153C139.562 75.2548 141.097 76.2538 143.639 78.1135C142.877 80.3423 140.887 82.932 138.334 83.3338C137.799 83.4178 137.237 83.268 136.577 83.349C135.752 84.9273 136.882 84.0298 136.012 85.3268C132.207 82.9578 129.539 81.7648 125.297 80.3468C118.374 77.8145 106.905 77.9953 99.2622 79.4163C82.274 82.5753 66.1995 100.204 64.137 117.333C63.8727 119.528 63.8382 122.304 63.7127 124.535C63.788 125.428 64.6137 133.044 64.6172 133.025C64.5145 133.827 64.4392 134.484 64.3887 135.29L63.9365 135.3L63.5442 134.22L63.1147 134.183C62.9717 134.81 63.0317 134.49 62.9365 135.142C62.2415 135.671 60.5655 137.018 59.8727 137.359L58.5732 137.172C58.388 137.462 58.1982 137.715 57.976 137.982C57.5667 137.503 57.734 137.776 57.6922 136.982C56.9477 138.025 57.9065 137.99 57.0947 138.417C56.7027 138.624 56.4282 139.018 56.1527 139.37C54.4472 134.222 53.8332 129.661 53.687 124.287C52.9667 119.929 54.6592 111.79 55.8122 107.531C53.5695 106.098 51.5725 104.428 49.3935 102.949C46.2795 100.836 43.1805 99.0765 40.1982 96.7533C33.2502 91.34 24.4482 84.239 16.9882 79.6163L16.6617 79.662C11.1505 80.391 5.90224 77.5018 1.61874 74.2178C0.358494 70.8123 0.02275 67.2523 0 63.6433C3.23075 61.3518 6.81424 59.603 10.6085 58.4665L11.5265 58.8193C14.806 60.103 20.487 63.064 22.745 65.941C23.2897 66.6355 23.948 68.1338 24.329 68.9895C30.1635 71.2923 36.5802 74.9403 42.386 77.3748C48.4912 79.9348 54.6155 82.004 60.5277 85.1183C62.555 86.186 64.5955 86.981 66.408 88.4575C75.5917 77.8188 86.174 71.6558 99.9877 68.8095C99.9902 61.5803 100.833 55.3903 101.525 48.1878C102.388 39.7308 103.106 31.2593 103.679 22.7775Z" fill="#4CC0FF"/>
<path d="M63.3022 128.554C63.2962 127.387 63.1832 123.548 63.4132 122.642C63.597 123.298 63.5462 123.58 63.534 124.262L63.7132 124.535C63.7885 125.427 64.6143 133.044 64.6178 133.025C64.515 133.826 64.4398 134.484 64.3893 135.29L63.937 135.3L63.5447 134.219L63.1152 134.183C62.9722 134.81 63.0322 134.49 62.937 135.142C62.242 135.671 60.566 137.018 59.8732 137.359L58.5737 137.171C58.3885 137.462 58.1988 137.714 57.9765 137.981C57.5673 137.502 57.7345 137.776 57.6927 136.982C56.9482 138.025 57.907 137.989 57.0952 138.417C56.7032 138.624 56.4287 139.018 56.1532 139.37C54.4477 134.222 53.8337 129.661 53.6875 124.287C54.7322 124.026 54.751 123.827 55.5427 124.148C55.9872 124.917 55.879 125.515 55.8717 126.416C56.213 126.133 56.1005 126.212 56.3098 125.768C57.1363 126.116 58.172 127.225 58.651 127.332C61.1018 127.877 61.4182 125.803 63.3022 128.554Z" fill="#359AFE"/>
<path d="M136.722 73.915C139.562 75.2545 141.097 76.2535 143.639 78.1133C142.877 80.342 140.887 82.9318 138.334 83.3335C137.799 83.4175 137.237 83.2678 136.577 83.3488C135.752 84.927 136.882 84.0295 136.012 85.3265C132.207 82.9575 129.539 81.7645 125.297 80.3465C128.074 80.052 127.244 79.9398 130.089 80.6328C129.562 80.2178 129.117 79.8363 128.617 79.3975L128.614 79.0133L129.039 78.8733C131.897 79.8408 135.364 78.4403 137.134 75.9163C137.569 75.2945 137.017 74.524 136.722 73.915Z" fill="#359AFE"/>
<path d="M124.681 32.6572C130.584 34.7435 137.321 35.7917 143.321 38.0587C157.601 43.4537 175.346 56.5047 183.709 69.3232C182.779 69.7645 181.551 70.206 180.574 70.5895C178.466 71.563 176.371 72.5582 174.286 73.5745C173.591 72.6107 172.166 70.6435 171.396 69.8325C168.681 66.9757 163.734 61.5562 160.634 59.4042C151.756 53.2455 141.211 47.3742 130.691 44.7197C128.646 44.2037 127.139 43.5887 125.006 43.4265C125.089 40.0122 124.346 35.5575 124.681 32.6572Z" fill="#3EABFF"/>
<path d="M95.9287 32.627L96.3327 32.8449C96.548 33.7694 96.0857 41.5537 96.066 43.4445C82.546 45.4367 64.143 55.0754 54.4862 64.8244C52.1415 67.1917 49.2272 71.1945 46.7595 73.0585C46.2672 73.4305 42.063 71.4152 41.1127 70.9904C39.9445 70.5707 39.0327 70.3954 38.3502 69.3967C38.0447 66.9754 44.5625 60.5472 46.4712 58.858C56.7907 49.6665 67.1192 41.3887 80.514 37.1525C85.6325 35.5337 90.8882 34.2395 95.9287 32.627Z" fill="#4FC6FE"/>
<path d="M46.2756 173.305C47.0368 173.71 49.7943 177.402 50.5788 178.315C62.7313 192.442 78.3873 199.847 96.0658 203.792C96.0136 206.39 96.3936 210.307 96.5898 213.01C94.2868 212.752 91.3403 212.24 89.1106 211.77C88.8226 211.71 88.5351 211.647 88.2478 211.585C82.5006 210.317 68.4598 204.572 63.3046 201.565C56.0813 197.355 42.1696 184.775 37.6953 177.767C39.3441 176.685 44.2728 174.335 46.2756 173.305Z" fill="#1F69FC"/>
<path d="M174.729 173.46C176.229 174.147 182.244 176.722 183.127 177.71C181.749 182.972 161.287 199.757 155.724 202.507C149.224 205.72 139.264 209.86 132.239 211.567C129.972 212.167 126.887 212.667 124.509 213.152C124.479 210.295 124.874 206.747 125.037 203.8C142.577 200.11 155.964 193.172 168.714 180.332C171.042 177.987 172.604 175.827 174.729 173.46Z" fill="#1F69FC"/>
<path d="M23.7343 92.4287C26.3068 93.3782 30.5386 96.2717 32.8996 97.8455C27.0876 109.248 26.5806 126.32 29.1023 138.818C29.8986 142.765 31.8491 147.543 33.3818 151.327C32.3693 152.014 30.4953 152.995 29.3616 153.626C27.8893 154.499 26.3743 155.454 24.8136 156.133C24.4313 155.525 23.6643 154.046 23.3818 153.34C17.1096 137.665 16.1501 119.902 19.9601 103.51C20.9901 99.079 22.1743 96.405 23.7343 92.4287Z" fill="#3DA7FF"/>
<path d="M197.242 92.2842C199.102 94.3087 201.574 103.825 202.112 106.828C204.677 121.212 204.104 135.664 199.072 149.444C198.522 150.953 197.354 154.773 196.534 155.953C195.557 155.892 192.429 153.906 191.444 153.333C190.849 153.021 188.127 151.752 188.254 151.003C188.687 148.47 190.167 146.102 190.957 143.619C191.799 140.888 192.469 138.106 192.964 135.291C194.744 124.686 194.289 115.545 191.402 105.093C190.744 102.711 189.349 100.561 188.762 98.2477C189.089 97.2044 195.727 93.2887 197.242 92.2842Z" fill="#1F69FC"/>
</svg>
